<svg width="24" height="24" viewBox="0 0 24 24" fill="none" xmlns="http://www.w3.org/2000/svg">
<g clip-path="url(#clip0_2002_3)">
<path d="M11.6221 0.0717773C11.8646 -0.0242356 12.1354 -0.0242356 12.3779 0.0717773L24 4.67432V18.5503C24 18.9708 23.7434 19.3495 23.3525 19.5044L12 23.9995L0.647461 19.5044C0.256567 19.3495 0 18.9708 0 18.5503V4.67432L11.6221 0.0717773ZM1.02539 18.5503L11.4873 22.6929V9.77393L1.02539 5.63135V18.5503ZM12.5127 9.77393V22.6929L22.9746 18.5503V5.63135L12.5127 9.77393ZM19.1367 10.3452C19.8581 10.15 20.3156 10.4089 20.5098 11.1216C20.5831 11.6406 20.5098 12.1373 20.2891 12.6108C20.2174 12.7652 20.1378 12.9133 20.0518 13.0542C19.9799 13.137 19.9061 13.2215 19.8311 13.3071C20.2473 13.4292 20.5315 13.6934 20.6836 14.0991C20.8418 15.1115 20.5577 15.9784 19.8311 16.6978C19.5811 16.8973 19.3177 17.0819 19.042 17.2515C18.3494 17.6147 17.6537 17.9688 16.957 18.313C16.4704 18.5491 15.9811 18.782 15.4893 19.0103C15.465 19.0056 15.4434 18.9945 15.4258 18.978C15.4047 16.6868 15.4047 14.3952 15.4258 12.104C16.4157 11.5732 17.4212 11.0713 18.4414 10.5991C18.6684 10.5021 18.9008 10.4171 19.1367 10.3452ZM3.08105 9.32471C3.13713 9.2919 3.19518 9.29189 3.25488 9.32471C3.63467 9.50721 4.01888 9.6864 4.40723 9.86279C4.76939 10.6 5.12181 11.3395 5.46484 12.0806C5.83517 12.8975 6.5929 14.4715 6.98047 15.2808C7.00677 13.8975 7.02305 12.5138 7.02832 11.1304C7.04126 11.116 7.05693 11.1058 7.0752 11.0991C7.16005 11.1312 7.2446 11.1626 7.32812 11.1938C7.57099 11.3262 7.82362 11.4425 8.08594 11.5425C8.18234 11.5829 8.27195 11.6356 8.35449 11.7007C8.36232 11.7425 8.36748 11.7845 8.37012 11.8267V18.7017C8.22819 18.6728 8.09148 18.6252 7.95996 18.5591C7.64218 18.4181 7.33151 18.2654 7.02832 18.1001C6.17854 16.279 5.32105 14.4624 4.45508 12.6509C4.42877 14.013 4.4125 15.3754 4.40723 16.7378C4.37412 16.77 4.33739 16.7751 4.29688 16.7534C3.93223 16.5758 3.5636 16.4069 3.19141 16.2466C3.12426 16.1898 3.08244 16.121 3.06543 16.0405C3.06016 13.8019 3.06527 11.5633 3.08105 9.32471ZM19.3574 15.0815C19.3452 14.6043 19.2085 14.451 18.7578 14.5903C18.1388 14.8692 17.4805 15.2126 16.8789 15.5249C16.8479 16.0154 16.8581 16.5333 16.9102 17.0142C17.4741 16.7127 18.0375 16.4375 18.5996 16.1899C19.052 15.9578 19.3047 15.5883 19.3574 15.0815ZM19.0098 11.8657C18.835 11.7612 18.6666 11.767 18.5049 11.8823C17.9781 12.1549 17.4356 12.4395 16.8789 12.7368C16.8736 13.1962 16.8573 13.6507 16.8311 14.0991V14.1948C16.9088 14.19 18.1968 13.5591 18.252 13.4976C18.7276 13.3002 19.028 12.9511 19.1523 12.4517C19.2042 12.2293 19.1564 12.0339 19.0098 11.8657ZM2.08789 4.94971L12 8.87451L21.9111 4.94971L12 1.0249L2.08789 4.94971Z" fill="#E0E0E0"/>
</g>
<defs>
<clipPath id="clip0_2002_3">
<rect width="24" height="24" fill="white"/>
</clipPath>
</defs>
</svg>
