<svg width="24" height="24" viewBox="0 0 24 24" fill="none" xmlns="http://www.w3.org/2000/svg">
<path d="M11.583 0.540008C11.4203 0.644175 11.2797 0.779459 11.1695 0.93809C11.0592 1.09672 10.9813 1.27558 10.9403 1.46438C10.8993 1.65319 10.8961 1.84823 10.9307 2.03831C10.9653 2.22839 11.0371 2.40976 11.142 2.57201C13.568 6.33001 14.141 9.16401 13.892 11.647C12.888 16.403 10.705 17.368 8.798 17.368C6.935 17.368 7.434 14.303 8.834 13.406C9.67 12.884 10.74 12.545 11.562 12.545C12.376 12.545 13.036 11.887 13.036 11.075C13.036 10.263 12.376 9.60501 11.562 9.60501C10.602 9.60501 9.661 9.80701 8.782 10.15C8.962 9.30301 9.028 8.38801 8.796 7.41501C8.444 5.93801 7.429 4.52601 5.668 3.15801C5.3595 2.91806 4.96844 2.81027 4.58057 2.85826C4.19271 2.90625 3.83971 3.10611 3.599 3.41401C3.099 4.05401 3.215 4.97801 3.858 5.47701C5.293 6.59101 5.766 7.41601 5.928 8.09501C6.09 8.77401 5.96 9.50201 5.635 10.503C5.219 11.852 4.735 13.056 4.525 14.211C4.42 14.779 4.411 15.398 4.385 15.891C3.351 14.885 2.947 13.555 2.947 11.612C2.947 10.801 2.287 10.142 1.473 10.142C1.2797 10.1416 1.08823 10.1793 0.909534 10.253C0.730839 10.3267 0.568433 10.435 0.431613 10.5715C0.294793 10.708 0.186245 10.8702 0.112183 11.0488C0.0381215 11.2273 -4.02529e-07 11.4187 0 11.612C0 14.266 0.776 16.791 2.855 18.475C4.738 20.268 9.525 19.605 9.525 22.485C9.525 23.297 10.715 23.693 11.529 23.693C12.363 23.693 13.414 23.135 13.414 22.485C13.414 19.218 16.857 17.232 22.524 17.241C22.7174 17.2418 22.909 17.2044 23.0879 17.131C23.2668 17.0576 23.4295 16.9497 23.5666 16.8133C23.7037 16.6769 23.8126 16.5148 23.887 16.3363C23.9613 16.1578 23.9997 15.9664 24 15.773C24.0004 15.5797 23.9627 15.3882 23.889 15.2095C23.8153 15.0308 23.7071 14.8684 23.5705 14.7316C23.434 14.5948 23.2718 14.4863 23.0932 14.4122C22.9147 14.3381 22.7233 14.3 22.53 14.3C22.1433 14.3007 21.764 14.3123 21.392 14.335C22.026 12.845 22.307 11.205 22.249 9.43201C22.2352 9.04198 22.0671 8.67337 21.7818 8.40713C21.4964 8.14089 21.1171 7.99878 20.727 8.01201C20.5338 8.01782 20.3436 8.0617 20.1673 8.14113C19.991 8.22056 19.8322 8.33398 19.6998 8.47489C19.5674 8.6158 19.4642 8.78144 19.3959 8.96233C19.3276 9.14321 19.2957 9.33578 19.302 9.52901C19.378 11.849 19.292 13.922 17.562 15.014C17.072 15.324 16.5 15.594 15.958 15.594C16.378 14.449 16.696 13.241 16.827 11.939C16.91 11.109 16.918 10.121 16.824 9.35401C16.676 8.16601 16.499 6.81901 16.95 5.80401C17.355 4.93001 18.263 4.56401 19.595 4.56401C20.409 4.56401 21.068 3.90501 21.068 3.09401C21.068 2.28301 20.409 1.62401 19.595 1.62401C17.615 1.62401 16.114 2.66601 15.263 3.92401C14.7825 2.90719 14.2339 1.92396 13.621 0.981008C13.4092 0.652623 13.0756 0.421804 12.6936 0.339295C12.3116 0.256786 11.9125 0.32934 11.584 0.541008L11.583 0.540008Z" fill="#E0E0E0"/>
</svg>
