<svg width="24" height="24" viewBox="0 0 24 24" fill="none" xmlns="http://www.w3.org/2000/svg">
<path d="M23.498 6.18601C23.362 5.67547 23.0945 5.20953 22.7222 4.83471C22.3498 4.45989 21.8856 4.18932 21.376 4.05001C19.505 3.54501 12 3.54501 12 3.54501C12 3.54501 4.495 3.54501 2.623 4.05001C2.11355 4.18947 1.64958 4.46011 1.2774 4.83492C0.905231 5.20973 0.637868 5.67559 0.502 6.18601C0 8.07001 0 12 0 12C0 12 0 15.93 0.502 17.814C0.637955 18.3246 0.905468 18.7905 1.27783 19.1653C1.65019 19.5401 2.11436 19.8107 2.624 19.95C4.495 20.455 12 20.455 12 20.455C12 20.455 19.505 20.455 21.377 19.95C21.8866 19.8107 22.3508 19.5401 22.7232 19.1653C23.0955 18.7905 23.363 18.3246 23.499 17.814C24 15.93 24 12 24 12C24 12 24 8.07001 23.498 6.18601ZM9.545 15.568V8.43201L15.818 12L9.545 15.568Z" fill="#E0E0E0"/>
</svg>
