<svg width="24" height="24" viewBox="0 0 24 24" fill="none" xmlns="http://www.w3.org/2000/svg">
<path d="M13.465 19.83H22.387C22.67 19.83 22.949 19.757 23.194 19.62C23.4377 19.4836 23.6415 19.2857 23.785 19.046C23.9262 18.8092 24.0009 18.5387 24.001 18.263C24.0004 17.9876 23.9254 17.7174 23.784 17.481L17.793 7.41401C17.6493 7.17474 17.4456 6.9772 17.202 6.84101C16.9554 6.70307 16.6775 6.63076 16.395 6.63101C16.112 6.63101 15.833 6.70401 15.588 6.84101C15.3448 6.97734 15.1414 7.17487 14.998 7.41401L13.464 9.99001L10.471 4.95301C10.3273 4.71374 10.1236 4.5162 9.88 4.38001C9.63342 4.24207 9.35554 4.16976 9.073 4.17001C8.789 4.17001 8.511 4.24301 8.266 4.38001C8.0224 4.5162 7.81865 4.71374 7.675 4.95301L0.217 17.481C0.075593 17.7174 0.000622204 17.9876 0 18.263C0 18.538 0.074 18.808 0.216 19.046C0.359241 19.2855 0.562639 19.4834 0.806 19.62C1.052 19.757 1.331 19.83 1.614 19.83H7.214C9.434 19.83 11.07 18.884 12.196 17.04L14.929 12.447L16.393 9.99001L20.788 17.372H14.929L13.465 19.83ZM7.124 17.37L3.216 17.368L9.074 7.52601L11.997 12.447L10.04 15.737C9.292 16.933 8.443 17.369 7.124 17.369" fill="#E0E0E0"/>
</svg>
