<svg width="24" height="24" viewBox="0 0 24 24" fill="none" xmlns="http://www.w3.org/2000/svg">
<path d="M5 21C4.45 21 3.97933 20.8043 3.588 20.413C3.19667 20.0217 3.00067 19.5507 3 19V5C3 4.45 3.196 3.97933 3.588 3.588C3.98 3.19667 4.45067 3.00067 5 3H11C11.2833 3 11.521 3.096 11.713 3.288C11.905 3.48 12.0007 3.71733 12 4C11.9993 4.28267 11.9033 4.52033 11.712 4.713C11.5207 4.90567 11.2833 5.00133 11 5H5V19H19V13C19 12.7167 19.096 12.4793 19.288 12.288C19.48 12.0967 19.7173 12.0007 20 12C20.2827 11.9993 20.5203 12.0953 20.713 12.288C20.9057 12.4807 21.0013 12.718 21 13V19C21 19.55 20.8043 20.021 20.413 20.413C20.0217 20.805 19.5507 21.0007 19 21H5ZM19 6.4L10.4 15C10.2167 15.1833 9.98333 15.275 9.7 15.275C9.41667 15.275 9.18333 15.1833 9 15C8.81667 14.8167 8.725 14.5833 8.725 14.3C8.725 14.0167 8.81667 13.7833 9 13.6L17.6 5H15C14.7167 5 14.4793 4.904 14.288 4.712C14.0967 4.52 14.0007 4.28267 14 4C13.9993 3.71733 14.0953 3.48 14.288 3.288C14.4807 3.096 14.718 3 15 3H20C20.2833 3 20.521 3.096 20.713 3.288C20.905 3.48 21.0007 3.71733 21 4V9C21 9.28333 20.904 9.521 20.712 9.713C20.52 9.905 20.2827 10.0007 20 10C19.7173 9.99933 19.48 9.90333 19.288 9.712C19.096 9.52067 19 9.28333 19 9V6.4Z" fill="#E0E0E0"/>
</svg>
