<svg xmlns="http://www.w3.org/2000/svg" width="0" height="0">
<symbol id="open-in-new" viewBox="0 0 24 24">
<path d="M5 21C4.45 21 3.97933 20.8043 3.588 20.413C3.19667 20.0217 3.00067 19.5507 3 19V5C3 4.45 3.196 3.97933 3.588 3.588C3.98 3.19667 4.45067 3.00067 5 3H11C11.2833 3 11.521 3.096 11.713 3.288C11.905 3.48 12.0007 3.71733 12 4C11.9993 4.28267 11.9033 4.52033 11.712 4.713C11.5207 4.90567 11.2833 5.00133 11 5H5V19H19V13C19 12.7167 19.096 12.4793 19.288 12.288C19.48 12.0967 19.7173 12.0007 20 12C20.2827 11.9993 20.5203 12.0953 20.713 12.288C20.9057 12.4807 21.0013 12.718 21 13V19C21 19.55 20.8043 20.021 20.413 20.413C20.0217 20.805 19.5507 21.0007 19 21H5ZM19 6.4L10.4 15C10.2167 15.1833 9.98333 15.275 9.7 15.275C9.41667 15.275 9.18333 15.1833 9 15C8.81667 14.8167 8.725 14.5833 8.725 14.3C8.725 14.0167 8.81667 13.7833 9 13.6L17.6 5H15C14.7167 5 14.4793 4.904 14.288 4.712C14.0967 4.52 14.0007 4.28267 14 4C13.9993 3.71733 14.0953 3.48 14.288 3.288C14.4807 3.096 14.718 3 15 3H20C20.2833 3 20.521 3.096 20.713 3.288C20.905 3.48 21.0007 3.71733 21 4V9C21 9.28333 20.904 9.521 20.712 9.713C20.52 9.905 20.2827 10.0007 20 10C19.7173 9.99933 19.48 9.90333 19.288 9.712C19.096 9.52067 19 9.28333 19 9V6.4Z" fill="currentColor"/>
</symbol>

<symbol id="money-bag" viewBox="0 0 24 24">
<path d="M12 16C11.45 16 10.9793 15.8043 10.588 15.413C10.1967 15.0217 10.0007 14.5507 10 14C9.99933 13.4493 10.1953 12.9787 10.588 12.588C10.9807 12.1973 11.4513 12.0013 12 12C12.5487 11.9987 13.0197 12.1947 13.413 12.588C13.8063 12.9813 14.002 13.452 14 14C13.998 14.548 13.8023 15.019 13.413 15.413C13.0237 15.807 12.5527 16.0027 12 16ZM7.375 7H16.625L17.9 4.45C18.0667 4.11667 18.054 3.79167 17.862 3.475C17.67 3.15833 17.3827 3 17 3H7C6.61667 3 6.32933 3.15833 6.138 3.475C5.94667 3.79167 5.934 4.11667 6.1 4.45L7.375 7ZM8.4 21H15.6C17.1 21 18.375 20.4793 19.425 19.438C20.475 18.3967 21 17.1173 21 15.6C21 14.9667 20.8917 14.35 20.675 13.75C20.4583 13.15 20.15 12.6083 19.75 12.125L17.15 9H6.85L4.25 12.125C3.85 12.6083 3.54167 13.15 3.325 13.75C3.10833 14.35 3 14.9667 3 15.6C3 17.1167 3.521 18.396 4.563 19.438C5.605 20.48 6.884 21.0007 8.4 21Z" fill="currentColor"/>
</symbol>

<symbol id="menu" viewBox="0 0 24 24">
<path d="M4 18C3.71667 18 3.47933 17.904 3.288 17.712C3.09667 17.52 3.00067 17.2827 3 17C2.99933 16.7173 3.09533 16.48 3.288 16.288C3.48067 16.096 3.718 16 4 16H20C20.2833 16 20.521 16.096 20.713 16.288C20.905 16.48 21.0007 16.7173 21 17C20.9993 17.2827 20.9033 17.5203 20.712 17.713C20.5207 17.9057 20.2833 18.0013 20 18H4ZM4 13C3.71667 13 3.47933 12.904 3.288 12.712C3.09667 12.52 3.00067 12.2827 3 12C2.99933 11.7173 3.09533 11.48 3.288 11.288C3.48067 11.096 3.718 11 4 11H20C20.2833 11 20.521 11.096 20.713 11.288C20.905 11.48 21.0007 11.7173 21 12C20.9993 12.2827 20.9033 12.5203 20.712 12.713C20.5207 12.9057 20.2833 13.0013 20 13H4ZM4 8C3.71667 8 3.47933 7.904 3.288 7.712C3.09667 7.52 3.00067 7.28267 3 7C2.99933 6.71733 3.09533 6.48 3.288 6.288C3.48067 6.096 3.718 6 4 6H20C20.2833 6 20.521 6.096 20.713 6.288C20.905 6.48 21.0007 6.71733 21 7C20.9993 7.28267 20.9033 7.52033 20.712 7.713C20.5207 7.90567 20.2833 8.00133 20 8H4Z" fill="currentColor"/>
</symbol>

<symbol id="logo_youtube" viewBox="0 0 24 24">
<path d="M23.498 6.18601C23.362 5.67547 23.0945 5.20953 22.7222 4.83471C22.3498 4.45989 21.8856 4.18932 21.376 4.05001C19.505 3.54501 12 3.54501 12 3.54501C12 3.54501 4.495 3.54501 2.623 4.05001C2.11355 4.18947 1.64958 4.46011 1.2774 4.83492C0.905231 5.20973 0.637868 5.67559 0.502 6.18601C0 8.07001 0 12 0 12C0 12 0 15.93 0.502 17.814C0.637955 18.3246 0.905468 18.7905 1.27783 19.1653C1.65019 19.5401 2.11436 19.8107 2.624 19.95C4.495 20.455 12 20.455 12 20.455C12 20.455 19.505 20.455 21.377 19.95C21.8866 19.8107 22.3508 19.5401 22.7232 19.1653C23.0955 18.7905 23.363 18.3246 23.499 17.814C24 15.93 24 12 24 12C24 12 24 8.07001 23.498 6.18601ZM9.545 15.568V8.43201L15.818 12L9.545 15.568Z" fill="currentColor"/>
</symbol>

<symbol id="logo_vue" viewBox="0 0 24 24">
<path d="M24 1.60999H14.06L12 5.15999L9.94 1.60999H0L12 22.39L24 1.60999ZM12 14.08L5.16 2.22999H9.59L12 6.40999L14.41 2.22999H18.84L12 14.08Z" fill="currentColor"/>
</symbol>

<symbol id="logo_vscodium" viewBox="0 0 24 24">
<path d="M11.583 0.540008C11.4203 0.644175 11.2797 0.779459 11.1695 0.93809C11.0592 1.09672 10.9813 1.27558 10.9403 1.46438C10.8993 1.65319 10.8961 1.84823 10.9307 2.03831C10.9653 2.22839 11.0371 2.40976 11.142 2.57201C13.568 6.33001 14.141 9.16401 13.892 11.647C12.888 16.403 10.705 17.368 8.798 17.368C6.935 17.368 7.434 14.303 8.834 13.406C9.67 12.884 10.74 12.545 11.562 12.545C12.376 12.545 13.036 11.887 13.036 11.075C13.036 10.263 12.376 9.60501 11.562 9.60501C10.602 9.60501 9.661 9.80701 8.782 10.15C8.962 9.30301 9.028 8.38801 8.796 7.41501C8.444 5.93801 7.429 4.52601 5.668 3.15801C5.3595 2.91806 4.96844 2.81027 4.58057 2.85826C4.19271 2.90625 3.83971 3.10611 3.599 3.41401C3.099 4.05401 3.215 4.97801 3.858 5.47701C5.293 6.59101 5.766 7.41601 5.928 8.09501C6.09 8.77401 5.96 9.50201 5.635 10.503C5.219 11.852 4.735 13.056 4.525 14.211C4.42 14.779 4.411 15.398 4.385 15.891C3.351 14.885 2.947 13.555 2.947 11.612C2.947 10.801 2.287 10.142 1.473 10.142C1.2797 10.1416 1.08823 10.1793 0.909534 10.253C0.730839 10.3267 0.568433 10.435 0.431613 10.5715C0.294793 10.708 0.186245 10.8702 0.112183 11.0488C0.0381215 11.2273 -4.02529e-07 11.4187 0 11.612C0 14.266 0.776 16.791 2.855 18.475C4.738 20.268 9.525 19.605 9.525 22.485C9.525 23.297 10.715 23.693 11.529 23.693C12.363 23.693 13.414 23.135 13.414 22.485C13.414 19.218 16.857 17.232 22.524 17.241C22.7174 17.2418 22.909 17.2044 23.0879 17.131C23.2668 17.0576 23.4295 16.9497 23.5666 16.8133C23.7037 16.6769 23.8126 16.5148 23.887 16.3363C23.9613 16.1578 23.9997 15.9664 24 15.773C24.0004 15.5797 23.9627 15.3882 23.889 15.2095C23.8153 15.0308 23.7071 14.8684 23.5705 14.7316C23.434 14.5948 23.2718 14.4863 23.0932 14.4122C22.9147 14.3381 22.7233 14.3 22.53 14.3C22.1433 14.3007 21.764 14.3123 21.392 14.335C22.026 12.845 22.307 11.205 22.249 9.43201C22.2352 9.04198 22.0671 8.67337 21.7818 8.40713C21.4964 8.14089 21.1171 7.99878 20.727 8.01201C20.5338 8.01782 20.3436 8.0617 20.1673 8.14113C19.991 8.22056 19.8322 8.33398 19.6998 8.47489C19.5674 8.6158 19.4642 8.78144 19.3959 8.96233C19.3276 9.14321 19.2957 9.33578 19.302 9.52901C19.378 11.849 19.292 13.922 17.562 15.014C17.072 15.324 16.5 15.594 15.958 15.594C16.378 14.449 16.696 13.241 16.827 11.939C16.91 11.109 16.918 10.121 16.824 9.35401C16.676 8.16601 16.499 6.81901 16.95 5.80401C17.355 4.93001 18.263 4.56401 19.595 4.56401C20.409 4.56401 21.068 3.90501 21.068 3.09401C21.068 2.28301 20.409 1.62401 19.595 1.62401C17.615 1.62401 16.114 2.66601 15.263 3.92401C14.7825 2.90719 14.2339 1.92396 13.621 0.981008C13.4092 0.652623 13.0756 0.421804 12.6936 0.339295C12.3116 0.256786 11.9125 0.32934 11.584 0.541008L11.583 0.540008Z" fill="currentColor"/>
</symbol>

<symbol id="logo_twitch" viewBox="0 0 24 24">
<path d="M11.571 4.714H13.286V9.857H11.57L11.571 4.714ZM16.286 4.714H18V9.857H16.286V4.714ZM5.99999 0L1.71399 4.286V19.714H6.85699V24L11.143 19.714H14.571L22.286 12V0H5.99999ZM20.571 11.143L17.143 14.571H13.714L10.714 17.571V14.571H6.85699V1.714H20.571V11.143Z" fill="currentColor"/>
</symbol>

<symbol id="logo_telegram" viewBox="0 0 24 24">
<path d="M11.944 0C8.77112 0.014807 5.73324 1.28562 3.4949 3.53446C1.25656 5.78329 -3.4549e-05 8.82708 7.12435e-10 12C7.12441e-10 15.1826 1.26428 18.2348 3.51472 20.4853C5.76515 22.7357 8.8174 24 12 24C15.1826 24 18.2348 22.7357 20.4853 20.4853C22.7357 18.2348 24 15.1826 24 12C24 8.8174 22.7357 5.76515 20.4853 3.51472C18.2348 1.26428 15.1826 0 12 0L11.944 0ZM16.906 7.224C17.006 7.222 17.227 7.247 17.371 7.364C17.4672 7.44672 17.5283 7.5629 17.542 7.689C17.558 7.782 17.578 7.995 17.562 8.161C17.382 10.059 16.6 14.663 16.202 16.788C16.034 17.688 15.703 17.989 15.382 18.018C14.686 18.083 14.157 17.558 13.482 17.116C12.426 16.423 11.829 15.992 10.804 15.316C9.619 14.536 10.387 14.106 11.062 13.406C11.239 13.222 14.309 10.429 14.369 10.176C14.376 10.144 14.383 10.026 14.313 9.964C14.243 9.902 14.139 9.923 14.064 9.94C13.958 9.96467 12.271 11.0797 9.003 13.285C8.523 13.615 8.089 13.775 7.701 13.765C7.273 13.757 6.449 13.524 5.836 13.325C5.084 13.08 4.487 12.951 4.539 12.536C4.56567 12.32 4.86333 12.099 5.432 11.873C8.93 10.349 11.2627 9.34433 12.43 8.859C15.762 7.473 16.455 7.232 16.906 7.224Z" fill="currentColor"/>
</symbol>

<symbol id="logo_supabase" viewBox="0 0 24 24">
<path d="M11.9 1.03611C11.885 0.0501061 10.64 -0.373894 10.026 0.399106L0.764003 12.0501C-0.329997 13.4271 0.650003 15.4551 2.409 15.4551H11.988L12.101 22.9651C12.115 23.9501 13.36 24.3731 13.974 23.6011L23.236 11.9481C24.329 10.5731 23.349 8.54511 21.591 8.54511H11.949L11.9 1.03611Z" fill="currentColor"/>
</symbol>

<symbol id="logo_sass" viewBox="0 0 24 24">
<path d="M12 0C18.627 0 24 5.373 24 12C24 18.627 18.627 24 12 24C5.373 24 0 18.627 0 12C0 5.373 5.373 0 12 0ZM9.615 15.998C9.79 16.643 9.771 17.246 9.591 17.79L9.526 17.97C9.50133 18.0313 9.47533 18.09 9.448 18.146C9.308 18.436 9.123 18.706 8.893 18.956C8.195 19.715 7.221 20.003 6.803 19.761C6.353 19.499 6.577 18.426 7.387 17.571C8.258 16.653 9.507 16.062 9.507 16.062V16.059L9.615 15.998ZM19.526 5.137C18.984 3.004 15.449 2.303 12.104 3.492C10.115 4.199 7.96 5.31 6.411 6.759C4.568 8.48 4.275 9.98 4.396 10.607C4.823 12.818 7.853 14.264 9.099 15.337V15.343C8.732 15.523 6.043 16.872 5.413 18.268C4.738 19.738 5.518 20.789 6.028 20.923C7.603 21.359 9.223 20.563 10.093 19.274C10.933 18.013 10.859 16.393 10.497 15.598C10.993 15.463 11.577 15.403 12.327 15.494C14.428 15.734 14.848 17.054 14.757 17.594C14.667 18.133 14.234 18.448 14.083 18.538C13.933 18.629 13.888 18.658 13.902 18.719C13.917 18.809 13.993 18.809 14.112 18.794C14.277 18.764 15.208 18.344 15.253 17.323C15.298 16.033 14.067 14.594 11.878 14.623C10.978 14.639 10.407 14.714 10.003 14.879C9.97486 14.8378 9.93925 14.8021 9.898 14.774C8.548 13.319 6.043 12.299 6.148 10.364C6.178 9.659 6.433 7.8 10.948 5.55C14.653 3.704 17.609 4.215 18.119 5.34C18.852 6.944 16.543 9.93 12.688 10.364C11.218 10.529 10.453 9.96 10.257 9.749C10.048 9.524 10.018 9.509 9.943 9.555C9.823 9.615 9.898 9.81 9.943 9.93C10.063 10.23 10.528 10.755 11.339 11.025C12.043 11.25 13.769 11.384 15.839 10.575C18.163 9.676 19.978 7.17 19.453 5.07L19.526 5.137Z" fill="currentColor"/>
</symbol>

<symbol id="logo_react" viewBox="0 0 24 24">
<path d="M14.23 12.004C14.23 12.5969 13.9946 13.1654 13.5754 13.5847C13.1563 14.004 12.5879 14.2397 11.995 14.24C11.402 14.24 10.8332 14.0044 10.4139 13.5851C9.99458 13.1658 9.759 12.597 9.759 12.004C9.759 11.4112 9.99444 10.8426 10.4136 10.4233C10.8327 10.004 11.4011 9.76827 11.994 9.76801C12.587 9.76801 13.1558 10.0036 13.5751 10.4229C13.9944 10.8422 14.23 11.411 14.23 12.004ZM16.878 1.31401C15.532 1.31401 13.771 2.27401 11.99 3.93601C10.21 2.28301 8.448 1.33401 7.103 1.33401C6.693 1.33401 6.32 1.42701 5.997 1.61201C4.622 2.40501 4.314 4.87601 5.024 7.97701C1.98 8.91701 0 10.42 0 12.004C0 13.594 1.99 15.101 5.043 16.034C4.339 19.147 4.653 21.622 6.031 22.414C6.351 22.601 6.721 22.689 7.133 22.689C8.478 22.689 10.24 21.729 12.021 20.065C13.801 21.719 15.563 22.668 16.908 22.668C17.318 22.668 17.691 22.578 18.014 22.393C19.388 21.601 19.697 19.13 18.987 16.028C22.02 15.096 24 13.59 24 12.004C24 10.414 22.01 8.90701 18.957 7.97201C19.661 4.86201 19.347 2.38501 17.969 1.59201C17.6358 1.4048 17.2601 1.3089 16.878 1.31401ZM16.873 2.40401V2.41001C17.098 2.41001 17.279 2.45401 17.431 2.53701C18.097 2.91901 18.386 4.37201 18.161 6.24101C18.107 6.70101 18.019 7.18601 17.911 7.68101C16.8885 7.43366 15.8505 7.25526 14.804 7.14701C14.1806 6.28721 13.5007 5.46975 12.769 4.70001C14.361 3.22001 15.856 2.40801 16.874 2.40501L16.873 2.40401ZM7.103 2.42401C8.115 2.42401 9.617 3.23201 11.213 4.70401C10.527 5.42401 9.843 6.24101 9.193 7.14601C8.14423 7.25378 7.10411 7.43354 6.08 7.68401C5.97261 7.21502 5.88784 6.74114 5.826 6.26401C5.596 4.39601 5.88 2.94401 6.54 2.55701C6.73 2.46701 6.94 2.42901 7.103 2.42401ZM11.985 5.47401C12.441 5.94334 12.8943 6.46467 13.345 7.03801C12.905 7.01801 12.455 7.00401 12 7.00401C11.5393 7.00334 11.086 7.01467 10.64 7.03801C11.08 6.46601 11.535 5.94301 11.985 5.47401ZM12 8.10001C12.74 8.10001 13.477 8.13401 14.202 8.19301C14.6087 8.77567 15.003 9.39567 15.385 10.053C15.7563 10.6937 16.0957 11.3423 16.403 11.999C16.095 12.654 15.757 13.309 15.39 13.949C15.01 14.609 14.617 15.237 14.21 15.819C12.7422 15.9476 11.2661 15.9493 9.798 15.824C9.37851 15.2204 8.98385 14.5999 8.615 13.964C8.24367 13.3233 7.90433 12.6747 7.597 12.018C7.90582 11.3521 8.24381 10.7002 8.61 10.064C8.99 9.40401 9.383 8.77801 9.79 8.19601C10.5249 8.13075 11.2622 8.09805 12 8.09801V8.10001ZM8.365 8.35401C8.125 8.73101 7.885 9.11701 7.661 9.51401C7.437 9.90401 7.22533 10.2953 7.026 10.688C6.761 10.032 6.536 9.37801 6.35 8.74101C6.99 8.59101 7.665 8.45701 8.365 8.35401ZM15.625 8.35401C16.321 8.45601 16.9897 8.58501 17.631 8.74101C17.451 9.37301 17.226 10.023 16.971 10.674C16.5629 9.87805 16.1139 9.10369 15.626 8.35401H15.625ZM18.688 9.02901C19.1727 9.17967 19.631 9.34567 20.063 9.52701C21.795 10.267 22.915 11.235 22.915 12.003C22.91 12.771 21.79 13.743 20.058 14.478C19.638 14.658 19.178 14.82 18.703 14.971C18.4025 13.9545 18.0351 12.959 17.603 11.991C18.053 10.974 18.413 9.98101 18.688 9.02701V9.02901ZM5.293 9.03301C5.571 9.99301 5.938 10.99 6.393 12.013C5.96355 12.975 5.60069 13.9653 5.307 14.977C4.823 14.827 4.363 14.659 3.937 14.477C2.205 13.74 1.085 12.771 1.085 12.003C1.085 11.235 2.205 10.261 3.937 9.52701C4.357 9.34701 4.817 9.18501 5.293 9.03301ZM16.971 13.313C17.236 13.97 17.461 14.625 17.647 15.261C17.007 15.418 16.331 15.551 15.631 15.651C16.1181 14.8954 16.5647 14.115 16.971 13.313ZM7.026 13.333C7.226 13.725 7.436 14.116 7.666 14.508C7.896 14.8987 8.131 15.2797 8.371 15.651C7.69672 15.5535 7.02733 15.4247 6.365 15.265C6.545 14.635 6.771 13.983 7.025 13.332L7.026 13.333ZM17.92 16.32C18.032 16.813 18.12 17.288 18.174 17.743C18.404 19.611 18.12 21.063 17.46 21.451C17.313 21.541 17.122 21.579 16.897 21.579C15.885 21.579 14.383 20.772 12.787 19.299C13.473 18.579 14.157 17.763 14.807 16.859C15.914 16.741 16.961 16.56 17.92 16.32ZM6.09 16.33C7.05 16.564 8.096 16.745 9.197 16.862C9.857 17.767 10.542 18.589 11.232 19.308C9.637 20.791 8.14 21.603 7.122 21.603C6.92975 21.6039 6.7401 21.5587 6.569 21.471C5.903 21.091 5.614 19.637 5.839 17.768C5.893 17.308 5.982 16.824 6.09 16.33ZM10.65 16.97C11.0907 16.9913 11.539 17.0027 11.995 17.004C12.4557 17.0047 12.909 16.9933 13.355 16.97C12.915 17.542 12.46 18.065 12.01 18.535C11.554 18.0643 11.1007 17.5427 10.65 16.97Z" fill="currentColor"/>
</symbol>

<symbol id="logo_postgresql" viewBox="0 0 24 24">
<path d="M23.56 14.723C23.5464 14.6806 23.5273 14.6403 23.503 14.603C23.363 14.3397 23.0273 14.2627 22.496 14.372C20.842 14.712 20.202 14.502 19.97 14.352C21.312 12.304 22.415 9.83 23.011 7.522C23.283 6.472 23.809 3.999 23.133 2.792C23.09 2.70911 23.0398 2.63014 22.983 2.556C21.693 0.910002 19.8 0.0250021 17.51 0.00100212C16.015 -0.0149979 14.74 0.347002 14.394 0.480002C14.2227 0.448179 14.0507 0.420837 13.878 0.398002C13.4449 0.319651 13.0061 0.277173 12.566 0.271002C11.384 0.252002 10.363 0.535002 9.516 1.111C8.66 0.790002 4.729 -0.533998 2.296 1.19C0.935005 2.153 0.309005 3.873 0.430005 6.304C0.471005 7.122 0.937005 9.638 1.673 12.048C2.133 13.5547 2.61067 14.7487 3.106 15.63C3.65934 16.6253 4.23067 17.222 4.82 17.42C5.268 17.568 5.953 17.563 6.678 16.691C7.30691 15.9388 7.95547 15.2032 8.623 14.485C9.05801 14.72 9.529 14.847 10.013 14.862V14.866C9.92886 14.9662 9.84652 15.0679 9.766 15.171C9.427 15.601 9.356 15.691 8.266 15.916C7.956 15.98 7.132 16.149 7.12 16.727C7.11823 16.8425 7.14983 16.956 7.211 17.054C7.438 17.477 8.133 17.664 8.226 17.687C9.561 18.02 10.731 17.779 11.598 17.008C11.581 19.239 11.675 21.426 11.943 22.096C12.164 22.649 12.705 24 14.413 24C14.663 24.0007 14.9393 23.9693 15.242 23.906C17.024 23.524 17.798 22.736 18.097 21C18.247 20.13 18.499 18.125 18.636 16.899C18.653 16.829 18.672 16.779 18.693 16.763C18.693 16.763 18.763 16.715 19.12 16.793L19.164 16.8L19.418 16.822L19.433 16.823C20.28 16.862 21.344 16.681 21.964 16.393C22.608 16.093 23.771 15.36 23.56 14.723ZM2.37 11.876C1.626 9.441 1.192 6.991 1.158 6.305C1.049 4.133 1.575 2.622 2.72 1.812C4.557 0.513002 7.56 1.272 8.828 1.682L8.818 1.692C6.795 3.734 6.843 7.226 6.85 7.44C6.85 7.522 6.856 7.639 6.866 7.8C6.9 8.386 6.966 9.48 6.792 10.718C6.632 11.868 6.986 12.994 7.765 13.807C7.845 13.891 7.92901 13.97 8.017 14.044C7.67 14.415 6.917 15.237 6.114 16.202C5.546 16.884 5.154 16.753 5.026 16.71C4.634 16.58 4.213 16.123 3.787 15.388C3.307 14.549 2.824 13.356 2.372 11.876M8.379 16.964C8.22707 16.9261 8.08152 16.8662 7.947 16.786C8.03601 16.747 8.18401 16.696 8.43001 16.646C9.71401 16.381 9.91201 16.195 10.345 15.646C10.462 15.494 10.5844 15.3462 10.712 15.203C10.7446 15.1647 10.7697 15.1206 10.786 15.073C10.956 14.922 11.058 14.963 11.222 15.031C11.378 15.096 11.53 15.291 11.592 15.506C11.622 15.608 11.654 15.801 11.547 15.951C10.643 17.217 9.325 17.201 8.379 16.964ZM10.473 12.976L10.421 13.116C10.288 13.473 10.164 13.805 10.087 14.12C9.42 14.118 8.77001 13.832 8.27701 13.317C7.649 12.662 7.364 11.751 7.494 10.817C7.677 9.509 7.61 8.37 7.574 7.758L7.561 7.538C7.857 7.276 9.22701 6.542 10.204 6.766C10.65 6.868 10.922 7.172 11.034 7.694C11.619 10.398 11.112 11.524 10.704 12.43C10.6214 12.6094 10.5447 12.7915 10.474 12.976M17.838 17.548C17.822 17.7253 17.8013 17.924 17.776 18.144L17.63 18.582C17.6191 18.617 17.613 18.6533 17.612 18.69C17.606 19.165 17.558 19.339 17.497 19.56C17.3977 19.9045 17.3373 20.2591 17.317 20.617C17.207 22.031 16.439 22.844 14.9 23.173C13.385 23.498 13.116 22.677 12.88 21.952C12.8553 21.8759 12.8293 21.8002 12.802 21.725C12.587 21.139 12.612 20.313 12.645 19.17C12.661 18.609 12.62 17.269 12.315 16.524C12.319 16.2307 12.3253 15.9333 12.334 15.632C12.3341 15.5938 12.3287 15.5557 12.318 15.519C12.307 15.4489 12.2923 15.3795 12.274 15.311C12.152 14.883 11.854 14.525 11.494 14.376C11.352 14.317 11.091 14.209 10.777 14.289C10.844 14.013 10.96 13.702 11.086 13.364L11.139 13.222C11.199 13.062 11.273 12.897 11.352 12.722C11.778 11.774 12.362 10.476 11.728 7.544C11.491 6.446 10.698 5.91 9.49601 6.034C8.776 6.109 8.116 6.4 7.787 6.566C7.72104 6.59946 7.65569 6.63413 7.591 6.67C7.683 5.564 8.03 3.496 9.327 2.188C9.42322 2.09088 9.52435 1.99876 9.63 1.912C9.6826 1.90204 9.7322 1.88014 9.775 1.848C10.527 1.278 11.47 0.998002 12.577 1.015C12.9877 1.02167 13.379 1.04867 13.751 1.096C15.691 1.451 16.995 2.543 17.787 3.479C18.601 4.441 19.042 5.41 19.218 5.933C17.895 5.799 16.995 6.06 16.538 6.713C15.546 8.131 17.082 10.885 17.82 12.209C17.955 12.451 18.072 12.661 18.109 12.749C18.349 13.332 18.66 13.721 18.887 14.005C18.957 14.092 19.025 14.176 19.076 14.25C18.676 14.366 17.956 14.633 18.021 15.967C17.9962 16.239 17.9682 16.5107 17.937 16.782C17.891 16.99 17.868 17.242 17.838 17.548ZM18.727 15.927C18.687 15.095 18.997 15.008 19.324 14.917L19.459 14.876C19.5007 14.9141 19.5455 14.9485 19.593 14.979C20.163 15.355 21.176 15.4 22.6 15.113C22.398 15.29 22.081 15.513 21.647 15.714C21.237 15.904 20.551 16.047 19.9 16.078C19.18 16.112 18.814 15.998 18.727 15.927ZM19.297 6.656C19.2861 6.99176 19.251 7.32629 19.192 7.657C19.137 8.015 19.08 8.385 19.065 8.834C19.051 9.27 19.105 9.724 19.158 10.164C19.265 11.051 19.374 11.964 18.951 12.865C18.8815 12.7401 18.8187 12.6116 18.763 12.48C18.6637 12.2697 18.5553 12.0638 18.438 11.863C17.822 10.759 16.381 8.173 17.118 7.119C17.498 6.576 18.46 6.553 19.297 6.656ZM19.525 13.669L19.44 13.562L19.405 13.518C20.131 12.318 19.989 11.131 19.862 10.079C19.81 9.647 19.762 9.239 19.774 8.857C19.787 8.45 19.84 8.102 19.892 7.765C19.956 7.35 20.022 6.921 20.003 6.415C20.0171 6.35271 20.0211 6.28857 20.015 6.225C19.969 5.739 19.415 4.287 18.285 2.972C17.5486 2.10401 16.6311 1.40772 15.597 0.932002C16.2625 0.796315 16.9409 0.733943 17.62 0.746002C19.672 0.792002 21.295 1.56 22.444 3.029C22.4683 3.06096 22.4907 3.09435 22.511 3.129C23.234 4.485 22.236 9.404 19.525 13.669ZM10.708 7.553C10.683 7.733 10.398 7.976 10.087 7.976L10.006 7.97C9.80306 7.9341 9.6218 7.82126 9.5 7.655C9.45401 7.595 9.38 7.477 9.394 7.37C9.39844 7.34011 9.40899 7.31145 9.42499 7.28582C9.44099 7.26018 9.4621 7.23812 9.48701 7.221C9.60501 7.132 9.839 7.099 10.097 7.135C10.413 7.179 10.739 7.328 10.707 7.553M18.637 7.142C18.648 7.222 18.588 7.342 18.484 7.452C18.3764 7.56941 18.2329 7.64784 18.076 7.675L18.001 7.68C17.708 7.68 17.46 7.446 17.441 7.309C17.417 7.132 17.705 6.999 18.001 6.957C18.299 6.915 18.613 6.966 18.637 7.142Z" fill="currentColor"/>
</symbol>

<symbol id="logo_nuxtdotjs" viewBox="0 0 24 24">
<path d="M13.465 19.83H22.387C22.67 19.83 22.949 19.757 23.194 19.62C23.4377 19.4836 23.6415 19.2857 23.785 19.046C23.9262 18.8092 24.0009 18.5387 24.001 18.263C24.0004 17.9876 23.9254 17.7174 23.784 17.481L17.793 7.41401C17.6493 7.17474 17.4456 6.9772 17.202 6.84101C16.9554 6.70307 16.6775 6.63076 16.395 6.63101C16.112 6.63101 15.833 6.70401 15.588 6.84101C15.3448 6.97734 15.1414 7.17487 14.998 7.41401L13.464 9.99001L10.471 4.95301C10.3273 4.71374 10.1236 4.5162 9.88 4.38001C9.63342 4.24207 9.35554 4.16976 9.073 4.17001C8.789 4.17001 8.511 4.24301 8.266 4.38001C8.0224 4.5162 7.81865 4.71374 7.675 4.95301L0.217 17.481C0.075593 17.7174 0.000622204 17.9876 0 18.263C0 18.538 0.074 18.808 0.216 19.046C0.359241 19.2855 0.562639 19.4834 0.806 19.62C1.052 19.757 1.331 19.83 1.614 19.83H7.214C9.434 19.83 11.07 18.884 12.196 17.04L14.929 12.447L16.393 9.99001L20.788 17.372H14.929L13.465 19.83ZM7.124 17.37L3.216 17.368L9.074 7.52601L11.997 12.447L10.04 15.737C9.292 16.933 8.443 17.369 7.124 17.369" fill="currentColor"/>
</symbol>

<symbol id="logo_nilkbit" viewBox="0 0 24 24">
<path d="M11.6221 0.0717773C11.8646 -0.0242356 12.1354 -0.0242356 12.3779 0.0717773L24 4.67432V18.5503C24 18.9708 23.7434 19.3495 23.3525 19.5044L12 23.9995L0.647461 19.5044C0.256567 19.3495 0 18.9708 0 18.5503V4.67432L11.6221 0.0717773ZM1.02539 18.5503L11.4873 22.6929V9.77393L1.02539 5.63135V18.5503ZM12.5127 9.77393V22.6929L22.9746 18.5503V5.63135L12.5127 9.77393ZM19.1367 10.3452C19.8581 10.15 20.3156 10.4089 20.5098 11.1216C20.5831 11.6406 20.5098 12.1373 20.2891 12.6108C20.2174 12.7652 20.1378 12.9133 20.0518 13.0542C19.9799 13.137 19.9061 13.2215 19.8311 13.3071C20.2473 13.4292 20.5315 13.6934 20.6836 14.0991C20.8418 15.1115 20.5577 15.9784 19.8311 16.6978C19.5811 16.8973 19.3177 17.0819 19.042 17.2515C18.3494 17.6147 17.6537 17.9688 16.957 18.313C16.4704 18.5491 15.9811 18.782 15.4893 19.0103C15.465 19.0056 15.4434 18.9945 15.4258 18.978C15.4047 16.6868 15.4047 14.3952 15.4258 12.104C16.4157 11.5732 17.4212 11.0713 18.4414 10.5991C18.6684 10.5021 18.9008 10.4171 19.1367 10.3452ZM3.08105 9.32471C3.13713 9.2919 3.19518 9.29189 3.25488 9.32471C3.63467 9.50721 4.01888 9.6864 4.40723 9.86279C4.76939 10.6 5.12181 11.3395 5.46484 12.0806C5.83517 12.8975 6.5929 14.4715 6.98047 15.2808C7.00677 13.8975 7.02305 12.5138 7.02832 11.1304C7.04126 11.116 7.05693 11.1058 7.0752 11.0991C7.16005 11.1312 7.2446 11.1626 7.32812 11.1938C7.57099 11.3262 7.82362 11.4425 8.08594 11.5425C8.18234 11.5829 8.27195 11.6356 8.35449 11.7007C8.36232 11.7425 8.36748 11.7845 8.37012 11.8267V18.7017C8.22819 18.6728 8.09148 18.6252 7.95996 18.5591C7.64218 18.4181 7.33151 18.2654 7.02832 18.1001C6.17854 16.279 5.32105 14.4624 4.45508 12.6509C4.42877 14.013 4.4125 15.3754 4.40723 16.7378C4.37412 16.77 4.33739 16.7751 4.29688 16.7534C3.93223 16.5758 3.5636 16.4069 3.19141 16.2466C3.12426 16.1898 3.08244 16.121 3.06543 16.0405C3.06016 13.8019 3.06527 11.5633 3.08105 9.32471ZM19.3574 15.0815C19.3452 14.6043 19.2085 14.451 18.7578 14.5903C18.1388 14.8692 17.4805 15.2126 16.8789 15.5249C16.8479 16.0154 16.8581 16.5333 16.9102 17.0142C17.4741 16.7127 18.0375 16.4375 18.5996 16.1899C19.052 15.9578 19.3047 15.5883 19.3574 15.0815ZM19.0098 11.8657C18.835 11.7612 18.6666 11.767 18.5049 11.8823C17.9781 12.1549 17.4356 12.4395 16.8789 12.7368C16.8736 13.1962 16.8573 13.6507 16.8311 14.0991V14.1948C16.9088 14.19 18.1968 13.5591 18.252 13.4976C18.7276 13.3002 19.028 12.9511 19.1523 12.4517C19.2042 12.2293 19.1564 12.0339 19.0098 11.8657ZM2.08789 4.94971L12 8.87451L21.9111 4.94971L12 1.0249L2.08789 4.94971Z" fill="currentColor"/>
</symbol>

<symbol id="logo_nextdotjs" viewBox="0 0 24 24">
<path d="M18.665 21.978C16.6937 23.2994 14.3732 24.0034 12 24C5.377 24 0 18.623 0 12C0 5.377 5.377 0 12 0C18.623 0 24 5.377 24 12C24 15.583 22.426 18.801 19.933 21.001L9.219 7.2H7.2V16.796H8.815V9.251L18.665 21.978ZM15.333 13.445L16.933 15.506V7.2H15.333V13.445Z" fill="currentColor"/>
</symbol>

<symbol id="logo_github" viewBox="0 0 24 24">
<path d="M12 0.296997C5.37 0.296997 0 5.67 0 12.297C0 17.6 3.438 22.097 8.205 23.682C8.805 23.795 9.025 23.424 9.025 23.105C9.025 22.82 9.015 22.065 9.01 21.065C5.672 21.789 4.968 19.455 4.968 19.455C4.422 18.07 3.633 17.7 3.633 17.7C2.546 16.956 3.717 16.971 3.717 16.971C4.922 17.055 5.555 18.207 5.555 18.207C6.625 20.042 8.364 19.512 9.05 19.205C9.158 18.429 9.467 17.9 9.81 17.6C7.145 17.3 4.344 16.268 4.344 11.67C4.344 10.36 4.809 9.29 5.579 8.45C5.444 8.147 5.039 6.927 5.684 5.274C5.684 5.274 6.689 4.952 8.984 6.504C9.944 6.237 10.964 6.105 11.984 6.099C13.004 6.105 14.024 6.237 14.984 6.504C17.264 4.952 18.269 5.274 18.269 5.274C18.914 6.927 18.509 8.147 18.389 8.45C19.154 9.29 19.619 10.36 19.619 11.67C19.619 16.28 16.814 17.295 14.144 17.59C14.564 17.95 14.954 18.686 14.954 19.81C14.954 21.416 14.939 22.706 14.939 23.096C14.939 23.411 15.149 23.786 15.764 23.666C20.565 22.092 24 17.592 24 12.297C24 5.67 18.627 0.296997 12 0.296997Z" fill="currentColor"/>
</symbol>

<symbol id="logo_figma" viewBox="0 0 24 24">
<path d="M15.852 8.981H11.264V0H15.852C18.328 0 20.342 2.014 20.342 4.49C20.342 6.966 18.328 8.981 15.852 8.981ZM12.735 7.51H15.852C17.517 7.51 18.871 6.155 18.871 4.491C18.871 2.827 17.516 1.472 15.852 1.472H12.735V7.51ZM12.735 8.981H8.148C5.672 8.981 3.658 6.967 3.658 4.491C3.658 2.015 5.672 0 8.148 0H12.736V8.981H12.735ZM8.148 1.471C6.483 1.471 5.129 2.826 5.129 4.49C5.129 6.154 6.483 7.51 8.148 7.51H11.265V1.471H8.148ZM12.735 16.49H8.148C5.672 16.49 3.658 14.476 3.658 12C3.658 9.524 5.672 7.51 8.148 7.51H12.736V16.49H12.735ZM8.148 8.981C6.483 8.981 5.129 10.336 5.129 12C5.129 13.664 6.484 15.019 8.148 15.019H11.265V8.981H8.148ZM8.172 24C5.683 24 3.657 21.986 3.657 19.51C3.657 17.034 5.671 15.02 8.147 15.02H12.735V19.461C12.735 21.964 10.688 24 8.172 24ZM8.148 16.49C7.34764 16.4911 6.58036 16.8095 6.01441 17.3754C5.44847 17.9414 5.13006 18.7086 5.129 19.509C5.129 21.174 6.494 22.528 8.173 22.528C9.878 22.528 11.266 21.152 11.266 19.46V16.49H8.148ZM15.852 16.49H15.754C13.278 16.49 11.264 14.476 11.264 12C11.264 9.524 13.278 7.51 15.754 7.51H15.852C18.328 7.51 20.342 9.524 20.342 12C20.342 14.476 18.328 16.49 15.852 16.49ZM15.755 8.981C14.09 8.981 12.736 10.336 12.736 12C12.736 13.664 14.091 15.019 15.755 15.019H15.853C17.518 15.019 18.872 13.664 18.872 12C18.872 10.336 17.516 8.981 15.852 8.981H15.755Z" fill="currentColor"/>
</symbol>

</svg>